<svg width="28" height="8" viewBox="0 0 28 8" fill="none" xmlns="http://www.w3.org/2000/svg">
<path d="M0.500038 6.19988C0.500038 5.78922 0.658071 5.39539 0.939377 5.10501C1.22068 4.81463 1.60221 4.65149 2.00004 4.65149L22.385 4.6515L20.435 2.65408C20.1526 2.36251 19.9939 1.96706 19.9939 1.55472C19.9939 1.14238 20.1526 0.746934 20.435 0.455367C20.7175 0.1638 21.1006 -2.76538e-07 21.5 -2.62149e-07C21.8995 -2.47761e-07 22.2826 0.1638 22.565 0.455367L27.065 5.10053C27.2732 5.31827 27.4142 5.59477 27.4702 5.89514C27.5263 6.19551 27.4949 6.50629 27.38 6.78827C27.2675 7.07104 27.0764 7.31309 26.8308 7.48393C26.5852 7.65477 26.2962 7.74674 26 7.74827L2.00004 7.74827C1.60221 7.74827 1.22068 7.58514 0.939377 7.29476C0.658071 7.00438 0.500038 6.61054 0.500038 6.19988Z" fill="#333333"/>
</svg>
